<?xml version="1.0" encoding="UTF-8" standalone="no"?>
<!-- Created with Inkscape (http://www.inkscape.org/) -->

<svg
   xmlns:dc="http://purl.org/dc/elements/1.1/"
   xmlns:cc="http://creativecommons.org/ns#"
   xmlns:rdf="http://www.w3.org/1999/02/22-rdf-syntax-ns#"
   xmlns:svg="http://www.w3.org/2000/svg"
   xmlns="http://www.w3.org/2000/svg"
   xmlns:sodipodi="http://sodipodi.sourceforge.net/DTD/sodipodi-0.dtd"
   xmlns:inkscape="http://www.inkscape.org/namespaces/inkscape"
   version="1.1"
   id="svg2"
   width="198.9913"
   height="25.505999"
   viewBox="0 0 2144.7958 25.505998"
   sodipodi:docname="logo.svg"
   inkscape:version="0.92.3 (2405546, 2018-03-11)">
  <metadata
     id="metadata8">
    <rdf:RDF>
      <cc:Work
         rdf:about="">
        <dc:format>image/svg+xml</dc:format>
        <dc:type
           rdf:resource="http://purl.org/dc/dcmitype/StillImage" />
      </cc:Work>
    </rdf:RDF>
  </metadata>
  <defs
     id="defs6" />
  <sodipodi:namedview
     pagecolor="#ffffff"
     bordercolor="#666666"
     borderopacity="1"
     objecttolerance="10"
     gridtolerance="10"
     guidetolerance="10"
     inkscape:pageopacity="0"
     inkscape:pageshadow="2"
     inkscape:window-width="1920"
     inkscape:window-height="1029"
     id="namedview4"
     showgrid="false"
     inkscape:zoom="6.6746988"
     inkscape:cx="74.864092"
     inkscape:cy="25.909506"
     inkscape:window-x="0"
     inkscape:window-y="27"
     inkscape:window-maximized="1"
     inkscape:current-layer="g817" />
  <g
     id="g817"
     transform="translate(-78.935343,-6.6202706)">
    <path
       style="fill:#cea339"
       d="M 187.57878,154.7871 C 146.58298,146.15069 113.54988,121.29972 94.60944,84.84582 88.087517,72.29333 82.701758,56.81454 80.545668,44.42623 78.217158,31.04724 78.451077,4.315 81.006383,-8.2241 c 5.80516,-28.48641 20.089167,-54.412747 40.877957,-74.195977 19.56045,-18.614313 43.34779,-30.417563 69.28495,-34.379123 15.0331,-2.2961 37.92899,-1.42982 51.33071,1.94214 44.77091,11.26466 80.72278,45.444229 95.56064,90.84986 4.76561,14.58332 6.32527,25.2935 6.30763,43.31442 -0.0174,17.81144 -1.50553,27.66099 -6.56566,43.45767 -13.45539,42.00497 -46.66751,75.48794 -87.7504,88.46602 -18.31762,5.78654 -44.74536,7.29089 -62.47343,3.55619 z m 745.74356,-26.00939 c -9.61847,-1.73362 -21.9888,-7.1213 -37.67596,-16.40911 -11.45701,-6.78329 -31.29966,-16.56138 -33.60795,-16.56138 -2.4127,0 -4.25102,2.76208 -6.52175,9.79894 -2.5212,7.81304 -6.97015,12.99477 -14.51668,16.90773 l -6.5,3.37032 -35.5,0.21151 -35.5,0.2115 -17,-5.35007 c -9.35,-2.94254 -19.80099,-5.59072 -23.22441,-5.88485 -6.04106,-0.51904 -6.56181,-0.36439 -17.67786,5.25006 -11.23411,5.67408 -11.61282,5.78457 -19.77559,5.76979 -10.68084,-0.0193 -25.09119,-3.78374 -37.45823,-9.78517 -8.16423,-3.96191 -9.8286,-5.26146 -15.64622,-12.21664 -9.04193,-10.80998 -11.11608,-12.60884 -13.62152,-11.81364 -1.14069,0.36204 -5.33701,3.3244 -9.32516,6.58303 -9.71726,7.93974 -14.92452,10.55268 -37.27101,18.70212 -28.88572,10.53421 -29.9599,10.75885 -51,10.66554 -9.9,-0.0439 -29.025,-0.52089 -42.5,-1.05997 -23.60822,-0.94447 -24.68741,-1.07681 -29.64882,-3.63575 -6.50685,-3.35603 -10.89187,-8.64136 -12.40606,-14.95323 -1.39524,-5.81599 -0.77979,-11.62084 2.62632,-24.77122 4.11138,-15.8733 4.63158,-24.52821 4.17963,-69.53954 l -0.42132,-41.96046 -3.29622,-12.5 c -5.66285,-21.474788 -4.49544,-30.561169 4.84659,-37.722779 6.19044,-4.745599 10.66844,-5.640478 29.11988,-5.819284 9.075,-0.08794 21.675,-0.725128 28,-1.415969 14.06388,-1.536112 25.25702,-0.760683 36.84465,2.552493 17.05965,4.877757 39.75782,12.706826 45.36604,15.647687 7.82974,4.105797 16.05393,13.000585 20.30709,21.962922 6.62829,13.96727 6.64179,22.06288 0.067,40.16422 C 602.61314,0.60462 601,6.8606 601,9.07868 c 0,3.54796 0.65193,4.68482 5.42179,9.45468 6.40879,6.40879 9.98816,6.91387 12.57082,1.77386 2.27315,-4.52402 2.06941,-74.722416 -0.25832,-89 -2.97277,-18.234124 -2.98822,-18.780714 -0.69563,-24.610574 2.51002,-6.382801 4.09881,-8.299646 9.50547,-11.468156 8.23587,-4.82654 30.12385,-5.03325 45.54083,-0.43008 11.29007,3.37096 18.59001,11.748955 20.91382,24.002395 0.58131,3.065212 1.00497,25.667944 1.01016,53.892905 0.005,26.73743 0.45506,55.81351 1.00032,64.61351 1.64248,26.50815 2.22837,27.17481 14.13929,16.08853 4.5933,-4.27528 12.62758,-10.58889 17.85397,-14.03023 13.925,-9.16899 13.71315,-8.58502 5.77452,-15.91732 -7.68534,-7.09835 -10.12213,-11.33829 -10.14518,-17.65232 -0.0356,-9.75665 8.43002,-19.89237 22.49413,-26.93168 15.62479,-7.82045 33.17231,-9.07544 50.87401,-3.63847 26.96461,8.28202 35.22649,12.82553 43.7896,24.08149 11.64429,15.30608 11.33447,15.22925 23.85755,5.91687 5.63559,-4.19073 15.21261,-9.6836 26.35285,-15.1146 34.21945,-16.68239 40.74897,-18.56902 64.5,-18.6365 20.36742,-0.0579 26.15453,1.11413 41.71053,8.44717 5.89077,2.7769 11.49147,4.89852 12.44587,4.71472 0.9544,-0.18381 2.6597,-1.90773 3.7895,-3.83093 1.8702,-3.18375 2.0471,-5.0631 1.9762,-20.99673 -0.061,-13.708099 -0.533,-19.6668 -2.1781,-27.5 -3.5332,-16.823893 -3.701,-20.299901 -1.2549,-26 2.7875,-6.49581 5.3891,-9.23569 11.5109,-12.12258 4.3992,-2.07455 6.442,-2.35486 17,-2.33276 26.0685,0.0546 38.4145,4.95942 44.9508,17.85818 3.046,6.011091 3.3877,8.848112 4.5282,37.599174 0.5237,13.201106 1.4626,25.466316 2.0865,27.256026 1.627,4.66736 4.172,4.85164 14.4767,1.04822 8.7084,-3.2142 9.3894,-3.30626 24.4578,-3.30626 17.0805,0 20.5762,0.69063 28.9641,5.72226 6.6958,4.01661 10.828,10.22712 11.6993,17.5833 1.0794,9.11442 1.2606,9.15571 14.9364,3.40336 6.5744,-2.76535 18.2415,-8.02976 25.9268,-11.6987 29.0422,-13.86454 36.9719,-15.96837 59.9734,-15.91165 24.4699,0.0603 35.422,3.59639 49.5,15.98187 11.1368,9.79785 11.8685,10.0724 19.8562,7.45021 3.6213,-1.18877 12.2275,-5.23103 19.125,-8.98278 20.5804,-11.1943 30.2153,-14.66697 43.5334,-15.69068 9.5982,-0.73778 21.5686,1.35943 31.4854,5.51623 9.6418,4.04152 31.7263,16.37575 44.3288,24.75764 6.0937,4.05292 12.0429,7.36894 13.2204,7.36894 2.6759,0 4.15,-1.72023 8.9427,-10.436 2.0977,-3.81479 6.2202,-10.46968 9.1611,-14.78863 2.9408,-4.31895 5.347,-8.55499 5.347,-9.41341 0,-0.85843 -1.8,-6.02531 -4,-11.48197 -5.2747,-13.082714 -5.5139,-20.531023 -0.9526,-29.659012 3.7273,-7.458869 12.2618,-16.199543 19.1873,-19.65065 9.9835,-4.974999 22.8087,-2.933168 31.681,5.04377 6.9113,6.213826 9.3977,11.797693 9.4814,21.292647 0.073,8.248497 -1.0599,11.076106 -10.4527,26.093255 -5.0371,8.05351 -4.9006,9.05499 2.94,21.55891 4.5426,7.24441 6.1565,10.8653 6.9889,15.68033 0.5953,3.44342 1.5508,20.43576 2.1233,37.76076 1.0131,30.66285 1.1084,31.63888 3.5838,36.72587 2.7837,5.72036 6.872,9.27413 10.669,9.27413 3.0402,0 5.1888,-2.31692 7.4649,-8.04965 1.5245,-3.83956 1.7617,-7.81286 1.7284,-28.95035 -0.036,-22.86297 -0.2223,-25.3582 -2.7879,-37.34384 -3.1516,-14.72375 -2.9431,-18.82392 1.3382,-26.32027 2.0696,-3.62372 4.2017,-5.68121 8.1546,-7.86918 l 5.3524,-2.96256 26.5,-0.67145 c 14.575,-0.3693 35.05,-0.99422 45.5,-1.3887 17.7423,-0.66976 19.5957,-0.56802 28,1.53705 27.441,6.87335 39.7905,12.94065 46.7577,22.972 7.1264,10.26061 8.9624,20.1107 10.7433,57.63778 0.8281,17.44986 1.5684,24.23852 3.5237,32.31371 4.4524,18.38805 3.0088,27.29962 -5.4309,33.52624 -6.2766,4.63073 -12.2173,5.91147 -24.5227,5.28679 -26.1788,-1.32894 -38.5677,-7.00347 -45.6788,-20.92251 -2.0876,-4.08625 -2.2261,-5.94945 -2.8479,-38.32442 -0.3595,-18.71615 -1.0335,-34.69115 -1.4978,-35.5 -4.7041,-8.1953 -10.8191,-7.79364 -15.6716,1.02936 -1.0401,1.89108 -1.3543,7.12777 -1.2902,21.5 0.08,17.88844 0.27,19.72982 3.25,31.47491 1.7409,6.8612 3.1652,14.64163 3.1652,17.28984 0,8.44786 -6.0774,17.02221 -14.9888,21.1471 -4.1945,1.94155 -6.2664,2.08815 -29.5112,2.08815 -23.1392,0 -25.5326,-0.16747 -32.1552,-2.25 -8.9197,-2.80482 -15.0137,-2.82693 -23.3448,-0.0847 -9.0556,2.9807 -26.1869,2.9466 -37.5,-0.0746 -17.2759,-4.61366 -25.8197,-10.6677 -35.1559,-24.91091 -6.9629,-10.6226 -9.1824,-13.17979 -11.4394,-13.17979 -0.9606,0 -7.4158,4.26349 -14.3448,9.47443 -13.0011,9.77742 -35.8983,23.99283 -45.5599,28.28525 -13.3753,5.94233 -27.8325,7.61858 -41.2267,4.78006 -8.6264,-1.82812 -11.8252,-3.27209 -37.8153,-17.07004 -11.8481,-6.29007 -22.969,-11.7219 -24.7132,-12.07074 -5.2349,-1.04699 -7.9847,0.31584 -16.2687,8.06291 -18.3815,17.19021 -31.846,22.7619 -54.9761,22.7495 -15.7625,-0.008 -20.8881,-1.5245 -42.1677,-12.47244 -12.44,-6.40014 -16.7819,-8.15314 -21.0763,-8.50926 l -5.4086,-0.44852 -8.4237,7.10619 c -5.7204,4.82567 -10.0063,7.58861 -13.3552,8.60943 -9.3403,2.84715 -41.3522,1.17285 -57.7527,-3.02061 -5.3263,-1.36189 -11.2436,-2.47616 -13.1496,-2.47616 -1.906,0 -7.6732,1.6875 -12.8158,3.75 l -9.3504,3.75 H 1054 c -16.1571,0 -24.809,-0.39753 -27.6895,-1.27224 -2.3041,-0.69973 -8.0993,-4.18723 -12.8781,-7.75 -4.7788,-3.56277 -9.6544,-6.47776 -10.8348,-6.47776 -1.1803,0 -5.73513,2.06073 -10.12181,4.5794 -20.3189,11.66637 -28.1981,14.37342 -43.47579,14.93698 -5.775,0.21303 -12.82995,-0.0326 -15.67766,-0.54589 z M 970.67667,71.27867 984.5,64.30722 h 12.38862 12.38858 l 2.1114,-2.82333 c 2.8445,-3.80366 3.0028,-14.90425 0.2719,-19.07211 l -1.8396,-2.80748 -9.83494,0.70393 c -12.60341,0.90207 -14.5556,0.25742 -29.33868,-9.68811 -11.9728,-8.05489 -17.73024,-10.81751 -22.52301,-10.80732 -4.98783,0.0106 -10.28083,2.14107 -14.26747,5.74275 -6.21515,5.61502 -8.15874,10.2806 -8.64474,20.75167 -0.67527,14.54903 4.02318,24.92206 13.59717,30.01922 3.89797,2.07527 5.81921,2.44887 11.36744,2.21052 6.00058,-0.25779 8.07643,-0.99277 20.5,-7.25829 z m 309.85063,3.18445 c 11.2525,-5.33175 23.0453,-12.38235 26.5165,-15.85353 3.8812,-3.8812 3.953,-8.23957 0.2062,-12.51849 -3.6708,-4.19217 -26.223,-19.84697 -33.75,-23.42786 -10.0451,-4.77885 -18.3839,-3.17945 -25.6936,4.92809 -4.4888,4.97876 -6.8064,12.20289 -6.8064,21.21589 0,9.11707 2.1999,15.80942 6.983,21.24331 8.7411,9.93049 18.1939,11.21216 32.5443,4.41259 z m 134.871,-0.75455 c 1.4674,-1.15426 3.7781,-4.2893 5.1348,-6.96676 2.2483,-4.43668 2.4669,-6.02609 2.4669,-17.93459 0,-11.91638 -0.2176,-13.49594 -2.4724,-17.94548 -3.1266,-6.17009 -7.0763,-9.05452 -12.3986,-9.05452 -3.2934,0 -4.7115,0.64914 -7.4919,3.42958 -4.8929,4.8929 -6.9999,11.99974 -6.9882,23.57042 0.013,12.41225 2.1139,19.70652 6.883,23.89384 4.4097,3.87182 10.6844,4.29706 14.8664,1.00751 z M 535.1504,69.72673 c 3.3099,-1.77141 5.0944,-7.29669 3.84961,-11.91946 C 536.35919,47.99999 525,48.7585 525,58.74212 c 0,9.1838 4.47216,14.02351 10.1504,10.98461 z m 625.8393,-8.90023 c 0.583,-1.0894 1.7358,-7.5019 2.5617,-14.25 0.8259,-6.74811 2.1647,-15.80649 2.9751,-20.12975 1.7323,-9.24128 1.8886,-14.63953 0.4238,-14.63953 -1.6633,0 -6.8534,2.89229 -14.8222,8.2599 -15.6577,10.54671 -18.7656,15.2499 -15.2816,23.12595 2.4341,5.50275 9.1792,12.99692 15.0993,16.7761 5.2391,3.34451 7.5933,3.56768 9.0439,0.85733 z M 1826.5,126.47185 c -11.084,-3.68124 -16.7633,-8.61955 -19.0818,-16.592 -1.9919,-6.8499 -1.5444,-10.67945 3.1257,-26.7449 l 3.5383,-12.17227 -0.2911,-42.32773 -0.2911,-42.32773 -2.7353,-4.65293 c -1.5044,-2.55912 -8.6299,-10.43412 -15.8345,-17.5 -16.8213,-16.497439 -18.9146,-20.282556 -16.7834,-30.34707 1.8372,-8.676008 7.8373,-14.11209 17.6169,-15.960924 4.7939,-0.906285 31.9991,0.14425 50.0783,1.933784 16.0659,1.590252 20.1633,4.161801 59.158,37.12717 49.5447,41.88419 50.881,42.89997 56.4371,42.89997 8.5449,0 8.5181,-20.38358 -0.057,-43.09752 -5.591,-14.810165 -6.3571,-20.553937 -3.5936,-26.944963 4.2296,-9.78192 16.8773,-14.925616 36.7131,-14.930867 14.9261,-0.004 22.7117,2.279811 34,9.973198 6.8942,4.698641 7.7582,4.66953 16.1216,-0.543192 11.0175,-6.866882 14.0218,-7.540448 36.3784,-8.1559 36.7853,-1.01266 47.4508,1.65483 53.3544,13.344271 3.1546,6.24614 2.9723,10.013811 -1.2943,26.747523 -5.3115,20.83203 -6.4675,35.25946 -5.7773,72.10745 0.5492,29.32367 1.3906,36.23315 5.0796,41.71345 3.6191,5.37657 6.6044,6.29672 20.1376,6.20699 12.8285,-0.0851 12.6951,-0.0516 39.4491,-9.88904 9.0393,-3.32372 18.2171,-3.28053 22.7901,0.10725 15.4699,11.46041 10.1216,42.61668 -9.474,55.19117 -8.8115,5.65435 -13.0301,6.16866 -50.7253,6.18431 -38.0172,0.0158 -87.3133,-1.6022 -95.2104,-3.12496 -6.0655,-1.1696 -13.2578,-6.86806 -16.3713,-12.97112 -2.8069,-5.50192 -2.4672,-11.0626 1.7918,-29.33201 l 3.75,-16.08604 -0.01,-47.5 -0.01,-47.5 -2.7344,-8.09315 c -3.4313,-10.155657 -6.465,-14.807639 -9.9208,-15.212853 -3.0153,-0.353553 -5.4192,2.487215 -9.3132,11.005773 -3.736,8.17263 -4.4329,16.02388 -5.4857,61.80023 -0.6464,28.10948 -1.4658,45.3781 -2.42,51 -0.7934,4.675 -1.9787,13.45 -2.634,19.5 -0.6553,6.05 -1.8311,12.55078 -2.613,14.44617 -5.6425,13.67778 -19.4327,17.79055 -34.4574,10.27653 -7.3729,-3.6873 -14.2138,-9.09865 -56.2476,-44.49379 -41.2624,-34.74563 -42.8357,-35.90959 -48.0259,-35.53049 -3.8358,0.28017 -4.2241,0.58553 -5.4696,4.30158 -0.9602,2.86478 -1.2075,7.68948 -0.8715,17 0.4371,12.1102 0.7904,13.99247 5.1613,27.5 5.4536,16.85307 5.8798,21.94273 2.403,28.69882 -2.6005,5.05329 -9.4886,10.48681 -15.6705,12.36129 -5.8149,1.76321 -28.943,2.17832 -33.6816,0.60452 z"
       id="path829"
       inkscape:connector-curvature="0" />
    <path
       style="fill:#171614"
       d="M 190.83431,142.24066 C 152.50018,135.3042 119.74751,111.12215 101.97594,76.6345 84.16122,42.06309 83.433657,1.84691 99.993679,-32.93553 c 16.879361,-35.453174 48.126531,-60.148377 87.168691,-68.89098 9.40959,-2.10707 36.25611,-2.37781 46.83763,-0.47236 43.6924,7.867866 81.36964,40.417752 95.4964,82.50064 11.16363,33.25586 7.52934,71.2633 -9.65107,100.93091 -19.10643,32.99352 -52.02263,55.67961 -88.84117,61.23 -11.76246,1.77319 -30.00224,1.71778 -40.16985,-0.12202 z m -10.84963,-59.9888 c 1.30459,-1.30392 1.563,-8.56748 1.85818,-52.2296 0.38979,-57.65596 -0.15533,-72.73723 -2.6639,-73.69986 -0.89792,-0.34457 -5.96444,-0.89039 -11.25893,-1.21295 -11.94728,-0.727857 -12.73174,0.0535 -6.61698,6.59066 8.65922,9.25742 8.16013,5.96524 8.48657,55.9798 0.33512,51.34544 0.37363,51.0593 -7.99775,59.43068 -7.18937,7.18936 -6.32908,8.16354 6.46847,7.32487 7.06059,-0.46271 10.67635,-1.13612 11.72434,-2.1836 z m 53.19099,-0.15169 c 6.58686,-2.97913 13.30938,-9.54166 16.54519,-16.15144 2.37059,-4.84238 2.8114,-7.12885 3.11199,-16.14151 0.29508,-8.84781 0.0143,-11.39254 -1.7841,-16.17228 C 248.65214,27.2655 243.59002,22.03955 236.46265,18.57681 234.00819,17.38434 232,15.77698 232,15.00488 c 0,-0.77209 1.95986,-3.58364 4.35524,-6.24788 5.28717,-5.8806 7.11939,-11.66871 6.99089,-22.08474 -0.11511,-9.33139 -3.08931,-16.60822 -9.34493,-22.86384 -7.10039,-7.10039 -11.45209,-8.51209 -26.0012,-8.43479 -18.36101,0.0975 -17.68157,-0.25802 -18.49751,9.68004 -0.3727,4.53945 -0.52573,32.37231 -0.34006,61.85079 0.26892,42.69727 0.60762,53.92245 1.66545,55.19631 1.70151,2.04899 6.39327,2.50245 23.67212,2.28794 11.87121,-0.14737 14.71097,-0.49536 18.67567,-2.28854 z M 206.3083,71.79762 c -1.20544,-0.48555 -2.89168,-1.95112 -3.7472,-3.25681 -2.33733,-3.56722 -3.69059,-16.55694 -3.35806,-32.23359 l 0.29696,-14 10.24095,0.20902 c 12.50775,0.25528 17.22027,1.44002 21.83109,5.48838 5.24679,4.60674 7.57227,9.87919 7.61488,17.26485 0.0831,14.40761 -5.21476,23.78501 -14.96797,26.49374 -4.47106,1.24174 -14.86378,1.2617 -17.91065,0.0344 z M 199.75,11.24575 c -1.01766,-1.04732 -0.8723,-33.855 0.17399,-39.26896 0.46028,-2.38174 1.35858,-4.85214 1.99621,-5.48977 1.67706,-1.67706 12.04787,-1.27356 15.68136,0.61012 4.34704,2.2536 9.09827,7.96738 10.33831,12.43275 1.34372,4.8387 1.34484,13.71196 0.002,18.54622 -1.38833,4.99931 -6.54791,9.9965 -12.01379,11.63569 -5.506,1.65122 -15.17378,2.56787 -16.17841,1.53395 z m 62.0504,62.62501 c 3.40866,-2.69439 5.96124,-5.90009 8.0898,-10.15972 C 272.61032,58.2676 273,56.46138 273,49.29672 273,40.05921 271.9504,36.17188 267.81293,30.08568 263.46585,23.69115 253,17.18086 253,20.8713 c 0,0.58524 1.1739,3.62274 2.60867,6.75 1.43477,3.12725 3.29884,9.05528 4.14237,13.1734 1.92902,9.41745 0.61128,19.49598 -3.77532,28.87479 -1.63665,3.49925 -2.97572,6.76175 -2.97572,7.25 0,2.05928 4.16264,0.61721 8.8004,-3.04873 z M 252.17662,8.02878 c 9.35815,-6.17181 13.75463,-22.27579 8.93317,-32.72156 -2.43712,-5.28006 -8.56013,-11.29932 -13.96601,-13.72936 -5.61741,-2.52513 -6.84833,-1.27175 -3.53691,3.60144 5.58667,8.22154 6.81265,12.41973 6.75391,23.12792 -0.037,6.751 -0.5919,11.42168 -1.70782,14.37573 -2.7858,7.37458 -1.80612,8.86088 3.52366,5.34583 z M 501,121.12752 c -4.675,-0.79773 -16.15,-1.53955 -25.5,-1.64849 -15.09793,-0.17591 -17.53146,-0.44205 -21.75,-2.37871 -7.74552,-3.55583 -6.70427,-4.34458 8.25,-6.24937 4.675,-0.59548 9.51497,-1.30811 10.75549,-1.58364 l 2.25549,-0.50095 -0.25549,-87.12065 C 474.53184,-54.617501 474.31306,-65.56967 473,-66.235097 c -0.825,-0.418089 -5.93655,-1.259696 -11.35901,-1.870237 -12.42766,-1.399292 -13.77416,-2.050933 -10.1418,-4.908145 1.48704,-1.169706 4.12055,-2.361012 5.85226,-2.647348 6.27822,-1.038096 44.48487,-2.99497 58.14855,-2.978261 l 14,0.01712 24.47642,8.252265 c 13.46204,4.538746 26.35503,9.353201 28.65111,10.698789 5.44739,3.192387 11.6601,10.328049 15.11196,17.356983 2.50603,5.10297 2.76051,6.63518 2.76051,16.62115 0,10.54936 -0.1583,11.36871 -3.86402,20 -5.08503,11.84397 -6.09657,15.52872 -5.22084,19.01791 0.97828,3.89778 26.7881,29.78218 29.22786,29.31233 2.63491,-0.50744 5.11682,-5.5693 6.29088,-12.83024 1.74196,-10.77314 1.36585,-82.490093 -0.49559,-94.5 -2.37505,-15.323671 -2.77929,-20.171213 -1.7359,-20.816068 1.61287,-0.996807 8.08394,4.34677 9.91179,8.184796 1.57459,3.306258 1.79674,10.881098 2.48195,84.631272 0.65783,70.80285 0.95609,81.56651 2.36922,85.5 2.34067,6.51535 6.15568,11.560511 11.33678,14.992321 5.83237,3.86321 4.24617,3.87691 -2.47628,0.0214 -6.72601,-3.85756 -10.55696,-8.543501 -17.31529,-21.179701 -4.6899,-8.76881 -5.93194,-10.38094 -8.20034,-10.64383 -2.0802,-0.24108 -3.52048,0.63037 -6.49176,3.92787 -11.04536,12.25804 -17.21704,18.31207 -20.81846,20.421581 -5.18754,3.03859 -41.36991,16.76155 -49.62764,18.82238 -15.42314,3.84907 -30.05059,4.48743 -44.87236,1.95829 z m 49.25358,-14.59901 C 566.25439,98.61619 575,82.63458 575,61.30722 575,40.51004 566.83173,26.30296 550.47333,18.64794 546.913,16.98186 544,15.38097 544,15.0904 c 0,-0.29058 2.76182,-3.48071 6.13738,-7.08919 7.28447,-7.78713 9.86614,-13.14189 10.92086,-22.65147 2.72381,-24.55844 -8.43605,-44.558297 -28.82516,-51.658284 -4.74163,-1.651153 -8.24457,-1.988817 -20.2559,-1.952556 -13.84131,0.04179 -23.24454,1.002495 -24.77337,2.531049 -0.96206,0.961887 -0.89802,173.176021 0.0648,174.139011 1.67287,1.67323 10.22268,2.21935 32.28744,2.06233 l 23.05601,-0.16407 7.64156,-3.77871 z M 512,95.05783 C 504.24313,90.87464 502,80.16514 502,47.31432 V 25.96613 l 2.75,-0.59387 c 3.65777,-0.7899 29.71512,1.08453 34.63208,2.49126 5.25847,1.50443 13.00125,8.98394 16.31802,15.76316 2.21158,4.52032 2.80053,7.30847 3.12869,14.81158 0.72677,16.61704 -4.86045,28.88124 -15.86027,34.81402 -4.90883,2.64759 -6.57188,2.98284 -16.46445,3.31906 -9.3501,0.31779 -11.53014,0.0903 -14.50407,-1.51351 z m 27.31684,-17.89497 c 7.33684,-5.50493 9.81745,-16.31533 5.69695,-24.82714 -5.84202,-12.06802 -20.13458,-13.93074 -25.6123,-3.338 -1.999,3.86563 -2.28453,14.60383 -0.52971,19.92098 1.13855,3.44985 6.13227,9.0503 9.12822,10.23728 2.58682,1.02488 8.73848,-0.0585 11.31684,-1.99312 z M 502.35438,10.28834 c -1.07352,-2.79756 0.26208,-55.820206 1.48062,-58.779489 3.53091,-8.574994 23.13484,-6.577945 33.08294,3.370149 6.13149,6.1315 7.5839,10.81937 7.56837,24.42822 -0.0121,10.63521 -0.28086,12.5118 -2.36285,16.5 -3.18785,6.10657 -5.78265,8.76993 -11.26156,11.55913 -8.05088,4.09852 -27.29896,6.07143 -28.50752,2.92199 z M 527.8,-17.39278 c 2.85209,-2.85209 0.33746,-8.35829 -3.4813,-7.62286 -2.49165,0.47985 -4.04479,5.24305 -2.36829,7.26311 1.54334,1.85961 4.18713,2.02221 5.84959,0.35975 z m 52.38835,120.10391 c 5.10274,-2.60322 12.28899,-10.02411 16.52438,-17.06391 7.30004,-12.13366 8.4356,-30.52677 2.64778,-42.88737 C 595.51562,34.5486 591.13611,29.51237 583.59496,24.63018 577.45535,20.65535 574,19.79115 574,22.23044 c 0,0.78276 1.76554,4.72026 3.92342,8.75 6.07439,11.34362 7.48518,17.35212 7.47288,31.82678 -0.0128,15.06607 -1.71259,21.86107 -8.03308,32.1126 -6.28706,10.19731 -5.60081,12.0899 2.82513,7.79131 z M 573.98836,5.31576 c 14.14163,-10.38091 19.03283,-30.86675 11.17886,-46.82043 -5.0526,-10.263296 -18.26153,-21.68811 -25.07496,-21.68811 -3.38188,0 -3.17178,1.532201 0.97154,7.085514 8.02838,10.760456 11.19276,20.660436 11.0927,34.704246 -0.0648,9.09312 -1.62908,16.62728 -5.0175,24.16598 -3.2247,7.17447 -0.71889,8.10841 6.84936,2.5528 z M 933.5,121.30972 c -12.50511,-2.35274 -16.22523,-4.08439 -42.13641,-19.61373 -13.85986,-8.30663 -20.46223,-12.99271 -28,-19.87322 -5.42497,-4.95194 -10.63526,-9.00623 -11.57841,-9.00954 -2.93296,-0.0103 -4.05151,3.96877 -4.4812,15.94113 -0.59375,16.54367 -0.46955,16.19962 -5.57515,15.44322 -2.32586,-0.34458 -5.27892,-1.28338 -6.56236,-2.08622 -4.98331,-3.11724 -5.34994,-5.92279 -6.31242,-48.30414 -0.81489,-35.88231 -1.09041,-40.1203 -3.00828,-46.27279 -2.33424,-7.4882 -5.25982,-10.68982 -12.67116,-13.86669 -8.17096,-3.50248 -9.2308,-1.80148 -3.79828,6.09602 2.38172,3.4624 3.54965,6.47481 3.96466,10.22589 0.32358,2.92467 0.88925,25.90114 1.25704,51.05883 0.45504,31.12575 1.0255,46.22237 1.78534,47.24695 0.72808,0.98175 4.92407,2.0375 12.05862,3.03406 6.01809,0.84061 11.11964,1.70602 11.33676,1.92315 0.21713,0.21713 -0.75391,1.14742 -2.15786,2.06733 -3.9591,2.5941 -15.84642,3.62111 -44.12089,3.81185 -29.32534,0.19783 -25.37884,0.84407 -58,-9.4975 -11.17629,-3.54311 -20.85298,-6.03767 -23.5,-6.05807 -2.475,-0.0191 -5.21872,-0.6574 -6.09715,-1.41851 -1.31063,-1.13559 -2.94853,-1.18284 -9.13023,-0.26343 -6.60105,0.98178 -7.98794,0.90457 -11.2093,-0.62407 -5.22751,-2.48061 -8.45718,-7.2115 -9.62753,-14.10258 -0.61854,-3.64202 -0.92435,-38.98287 -0.80785,-93.36044 l 0.18745,-87.5 -4.98957,-0.296429 c -3.7767,-0.224373 -5.57738,0.179708 -7.4077,1.662326 l -2.41812,1.958756 0.18437,84.837677 c 0.1205,55.44634 0.56255,87.26276 1.27597,91.83767 2.07388,13.29898 9.32852,24.09779 17.76233,26.43987 4.68668,1.3015 12.73485,1.3629 17.03393,0.12994 4.67623,-1.34113 3.98831,0.39117 -1.14149,2.87447 -6.76241,3.27362 -12.80674,3.56515 -23.11511,1.11487 -10.05017,-2.38891 -18.56719,-5.84087 -14.75,-5.9782 3.09798,-0.11146 2.84868,-1.83698 -1.45601,-10.07793 l -3.70602,-7.09482 -0.71676,-32.2041 c -0.39422,-17.71225 -0.75841,-58.9791 -0.8093,-91.7041 -0.0509,-32.725 -0.48946,-60.126832 -0.97459,-60.89296 -0.82733,-1.30652 -4.73545,-2.294205 -14.86028,-3.75558 -5.85475,-0.845049 -6.14137,-2.03516 -1.04693,-4.347097 7.36281,-3.341363 29.97476,-2.266023 39.21197,1.86477 5.00381,2.237663 9.13284,6.279309 11.84372,11.59308 2.49822,4.896916 2.59559,7.358365 3.68009,93.037787 0.76807,60.67992 0.87503,63.19914 2.90452,68.40744 3.51769,9.02748 9.78989,13.67689 13.08859,9.70221 0.63464,-0.76469 2.49066,-5.66689 4.12449,-10.89378 5.47016,-17.49989 11.24405,-23.11786 33.09003,-32.19642 22.31825,-9.27483 29.77823,-15.05014 27.08253,-20.96656 -1.93909,-4.25583 -5.21206,-5.54274 -15.80641,-6.21492 -5.4448,-0.34546 -10.99008,-1.03132 -12.32283,-1.52414 -2.08828,-0.77218 -2.22649,-1.08845 -1,-2.28831 0.78275,-0.76575 4.19905,-2.95211 7.59176,-4.85857 10.03216,-5.63736 21.11014,-7.10971 31.12234,-4.1364 9.40077,2.79173 12.50201,9.88754 12.00557,27.46945 l -0.29648,10.5 -11.5,0.55759 c -14.12995,0.68511 -20.35268,3.21938 -27.60521,11.24249 -7.41056,8.19795 -9.81719,14.38916 -9.79561,25.19992 0.0153,7.67573 0.41049,9.81609 2.68566,14.54634 3.22097,6.69661 10.01658,14.01802 15.89415,17.12393 6.4964,3.43292 17.57392,3.27951 24.55037,-0.34001 l 5.1458,-2.66973 1.66324,2.53842 c 1.46817,2.24071 2.17913,2.48028 6.06187,2.04264 8.0636,-0.90889 7.53944,2.8874 7.20128,-52.15682 -0.29159,-47.46403 -0.37108,-49.23503 -2.40721,-53.63558 -5.4412,-11.75969 -13.13403,-16.11264 -29.60522,-16.752 -11.96163,-0.46431 -19.91245,1.31228 -31.06264,6.94088 -4.98182,2.51482 -5.69344,2.66871 -4.82346,1.04313 2.7061,-5.05638 14.7749,-12.67102 24.0349,-15.16448 2.41311,-0.64979 9.70092,-1.17387 16.19514,-1.16463 10.92137,0.0155 12.61682,0.29034 22.58731,3.66095 14.9799,5.06408 26.07289,10.60653 30.62563,15.30164 2.1153,2.18144 6.8403,9.75305 10.5,16.82579 8.63209,16.68238 8.6421,16.68462 20.23488,4.51482 7.583,-7.96043 19.50221,-17.15529 22.23827,-17.15529 0.55499,0 -1.01475,1.57674 -3.4883,3.50387 -8.11665,6.32362 -12.86266,14.33109 -15.82992,26.70822 -3.58715,14.96287 -1.87061,31.28847 4.7092,44.78791 4.65368,9.54771 18.14728,21.47593 21.03153,18.59168 0.35668,-0.35669 -1.02544,-3.74772 -3.07137,-7.53562 -7.07966,-13.1075 -7.90835,-16.66154 -8.40709,-36.05606 -0.34858,-13.55514 -0.10079,-18.99265 1.09922,-24.12163 1.96352,-8.39222 5.49273,-16.28892 9.50421,-21.26587 3.71222,-4.60567 3.93999,-6.35789 0.88337,-6.7956 -2.73277,-0.39133 14.8194,-9.62058 28.98929,-15.24308 12.98773,-5.15344 21.66033,-6.57382 40.13858,-6.57382 17.17312,0 24.04823,1.20215 32.17684,5.62629 9.57559,5.21167 20.94529,20.06845 20.94529,27.3691 0,5.39192 -8.3058,17.11603 -12.88131,18.18261 -1.98016,0.4616 -3.97261,-9.6631 -4.06923,-20.678 -0.10121,-11.53808 -1.0949,-13.50529 -7.97839,-15.79477 -9.69421,-3.22435 -27.50556,-5.70523 -40.96034,-5.70523 -20.2582,0 -29.33858,3.22901 -40.71153,14.47713 -12.53487,12.39729 -18.41986,28.20029 -18.38184,49.36084 0.023,12.81458 1.98139,21.4321 7.11129,31.29242 4.93662,9.48881 14.65583,19.91566 22.45798,24.09311 10.44107,5.59038 28.78622,7.42693 42.3203,4.23672 13.26206,-3.12609 27.40694,-13.68902 35.74001,-26.68947 2.38697,-3.72391 4.74162,-6.77075 5.23256,-6.77075 1.2803,0 4.1205,6.36186 4.1205,9.22968 0,3.3171 -5.14347,10.81489 -11.08124,16.15345 -11.02858,9.91565 -22.69377,15.82662 -35.91876,18.20072 -9.17809,1.64762 -14.40654,1.62952 -23.5,-0.0813 z M 742,106.2405 c 0,-0.8617 -1.1115,-3.02397 -2.47,-4.80506 -9.30662,-12.20161 -10.49025,-29.23061 -3.07463,-44.23509 4.10832,-8.31263 4.28029,-9.39313 1.49497,-9.39313 -5.54646,0 -15.79507,8.04066 -19.35555,15.18562 -2.17783,4.37034 -2.58256,6.50123 -2.51871,13.26072 0.0861,9.11154 1.09368,12.54125 5.5248,18.8054 C 727.16596,102.92614 742,111.05725 742,106.2405 Z m 508.9272,15.51193 c -8.2178,-1.22249 -17.4019,-4.99304 -32.2186,-13.22745 -17.1298,-9.5199 -23.1209,-12.01937 -29.0716,-12.12854 -4.4506,-0.0817 -5.1469,0.23894 -8.2089,3.77979 -3.0149,3.48634 -3.6851,3.80536 -6.7764,3.22543 -1.8868,-0.35398 -6.2929,-2.06137 -9.7912,-3.79422 -5.1911,-2.5714 -9.7617,-6.57251 -24.8605,-21.76331 -25.5523,-25.70795 -41.077,-42.68288 -40.4568,-44.23614 1.1784,-2.95146 34.8287,-27.35516 44.4568,-32.24077 5.6206,-2.85206 14.9449,-5.94839 15.6849,-5.20845 2.4601,2.46015 -5.7903,12.53449 -19.9514,24.36189 C 1131.705,27.22614 1127,33.66577 1127,37.94873 c 0,5.35615 5.3415,13.26378 16.4902,24.41252 8.0598,8.05985 12.7765,11.92284 17.3448,14.20566 10.3315,5.1627 11.2576,3.62261 10.4569,-17.38886 -0.9427,-24.73626 2.869,-37.93562 13.7908,-47.75525 8.0625,-7.24892 46.9189,-26.29804 61.262,-30.03335 9.4756,-2.46769 29.0902,-3.77906 39.2724,-2.62561 17.4684,1.97886 24.5654,5.61618 35.0526,17.96508 3.5397,4.16806 7.7258,8.12731 9.3025,8.79831 4.1568,1.76902 9.6874,-0.19186 27.5278,-9.76006 30.058,-16.12074 35.2052,-17.95995 50.2627,-17.95995 13.1374,0 21.3882,2.17342 35.5743,9.37093 21.6974,11.00843 28.1987,15.38718 41.3933,27.87907 6.826,6.4625 12.7923,11.75 13.2585,11.75 2.9175,0 4.2421,-1.98106 6.5908,-9.85745 5.5471,-18.60188 7.526,-23.37025 9.0618,-21.83449 0.3711,0.37109 0.993,21.04109 1.3821,45.93333 0.6652,42.56029 0.8318,45.57922 2.7943,50.63616 2.9978,7.72453 6.7947,12.73488 13.0393,17.20652 6.3638,4.55708 6.085,4.93376 -0.9961,1.34549 -9.5457,-4.83719 -17.2915,-15.63808 -23.2566,-32.42956 -2.2756,-6.40597 -5.3015,-11 -7.2452,-11 -0.9185,0 -7.3377,5.78575 -14.2647,12.85723 -12.7424,13.00826 -23.8197,21.27721 -42.5945,31.79583 -14.5002,8.12381 -16.6408,8.74208 -31.7062,9.15819 -19.0289,0.52557 -22.6425,-0.82807 -60.9883,-22.84552 -18.1522,-10.42266 -20.5977,-11.48406 -25.3055,-10.98331 -2.7132,0.28859 -3.7434,1.23657 -11.7246,10.78913 -10.5638,12.64362 -23.1081,20.57952 -36.6794,23.20462 -7.3142,1.41478 -19.1176,1.86923 -25.1688,0.96904 z m 27.5925,-11.2907 c 7.1883,-2.28436 16.5207,-8.24969 23.3507,-14.92592 6.6472,-6.49749 13.2895,-18.03373 13.6997,-23.79336 0.1445,-2.0279 1.2003,-5.525 2.3463,-7.77132 3.8237,-7.49503 2.5589,-19.42545 -2.6945,-25.4167 -1.86,-2.12128 -4.0935,-17.03556 -4.305,-28.74721 -0.2474,-13.70045 -0.4379,-14.11784 -7.4198,-16.25787 -18.7755,-5.75498 -49.2404,-7.60955 -61.7139,-3.75689 -16.6789,5.1516 -29.1812,18.39777 -35.4079,37.51476 -3.4317,10.53581 -4.3304,28.37134 -1.9903,39.5 4.4906,21.35577 20.0836,39.26629 38.7196,44.4744 7.0221,1.96242 28.2029,1.47207 35.4151,-0.81989 z m -26.2935,-11.76661 c -5.8797,-0.9792 -13.3666,-4.45225 -17.997,-8.34853 -8.2462,-6.93872 -14.8186,-22.36934 -15.8604,-37.23712 -1.6709,-23.8467 6.9283,-41.3372 24.3904,-49.60912 6.4187,-3.04054 7.3142,-3.19285 18.7408,-3.18726 11.5605,0.006 12.2674,0.13099 19.3012,3.42164 9.3705,4.38388 17.408,12.67047 19.6667,20.2763 2.6019,8.7615 2.6008,8.76153 -10.3351,0.28587 -13.5046,-8.84835 -20.113,-11.75294 -27.0376,-11.88388 -10.3244,-0.19523 -20.8289,7.20231 -25.8732,18.22041 -2.3036,5.03181 -2.5768,6.88486 -2.6015,17.64796 -0.025,10.88617 0.22,12.56365 2.5863,17.70098 5.7876,12.56519 15.9686,19.79743 27.894,19.81508 7.7264,0.0114 9.6867,-0.56343 24.6812,-7.23781 6.205,-2.76202 11.5584,-4.74538 11.8963,-4.40746 0.3379,0.33791 -0.5108,2.31469 -1.8861,4.39285 -7.3701,11.137 -18.6737,18.44516 -31.2922,20.23158 -7.982,1.13001 -9.0308,1.12476 -16.2738,-0.0815 z M 1414,111.77852 c 14.2437,-2.22112 28.6933,-12.47788 34.8998,-24.77277 5.4042,-10.70579 6.5194,-17.36721 6.5621,-39.19853 0.035,-17.7061 -0.1772,-20.18996 -2.3026,-27 -6.4196,-20.56954 -20.7288,-32.25485 -42.2588,-34.50961 -25.5072,-2.6713 -45.3602,11.71884 -52.4389,38.00961 -2.4863,9.2345 -3.1085,34.88583 -1.1023,45.4457 4.103,21.5966 18.1229,37.53769 36.6407,41.66178 6.9625,1.55061 11.8224,1.63902 20,0.36382 z m -19.5,-14.30174 c -10.4179,-3.47286 -15.9602,-8.98992 -19.5338,-19.44491 -1.9704,-5.76475 -2.3606,-9.29404 -2.7332,-24.72465 -0.2435,-10.08335 0.014,-20.41898 0.5863,-23.5 2.5642,-13.813 8.3401,-22.95489 17.5428,-27.76601 4.5712,-2.38978 6.2487,-2.68869 15.2086,-2.71002 9.2573,-0.022 10.5473,0.21977 15.9715,2.99379 7.2938,3.73019 12.6535,10.41802 15.6133,19.48224 2.6328,8.06274 3.7638,34.90011 1.9176,45.50176 -3.6465,20.93952 -13.0178,30.12073 -31.6996,31.05666 -5.8496,0.29306 -10.2366,-0.01 -12.8735,-0.88886 z m 18.6243,-14.21243 c 9.5729,-3.37538 15.5487,-12.93221 16.8058,-26.87689 1.5753,-17.47457 -1.6355,-30.28863 -9.3775,-37.425 -8.6042,-7.93106 -16.4831,-7.65347 -24.742,0.87172 -6.4628,6.67129 -8.8106,14.3638 -8.8106,28.86828 0,20.50716 4.8163,30.41225 16.8851,34.72514 4.5894,1.64008 4.1002,1.64873 9.2392,-0.16325 z M 1359,98.32224 c 0,-0.81673 -1.3172,-3.62923 -2.9271,-6.25 -7.6919,-12.52176 -11.2697,-33.47781 -9.2461,-54.15686 1.2911,-13.19381 3.8133,-21.93441 8.7759,-30.41174 5.4796,-9.36071 4.2519,-11.02248 -4.0707,-5.50983 -9.1166,6.03861 -17.2593,20.23862 -19.4907,33.98975 -2.2838,14.0736 -0.9571,26.87278 4.1653,40.1854 2.5613,6.65672 4.1957,9.07084 10.663,15.75 5.0765,5.24276 8.3914,7.88826 9.8842,7.88826 1.3199,0 2.2462,-0.61242 2.2462,-1.48498 z m -153.5536,-2.42825 c 0.3104,-0.50227 -1.2036,-4.21477 -3.3644,-8.25 -6.7995,-12.69759 -7.584,-16.72415 -7.5668,-38.83677 0.018,-22.63461 1.1227,-27.36567 9.1806,-39.30562 4.9104,-7.27605 4.852,-9.37193 -0.2259,-8.09747 -4.2321,1.0622 -16.5542,13.90425 -19.745,20.57814 -11.6365,24.33974 -4.825,57.87395 14.6161,71.95701 4.0964,2.96741 6.1332,3.52774 7.1054,1.95471 z m 255.716,-2.21542 c 5.1186,-4.05395 13.5739,-16.60515 16.755,-24.87135 2.2297,-5.79388 2.5059,-8.02088 2.542,-20.5 0.035,-12.08979 -0.274,-14.91043 -2.2652,-20.67258 -2.6943,-7.79718 -10.2497,-19.00718 -16.3023,-24.18796 -7.4277,-6.35784 -8.652,-4.64526 -3.9305,5.49827 4.1084,8.82618 5.8908,16.35336 7.2456,30.59842 1.8756,19.71982 -1.171,37.12576 -9.0577,51.74904 -1.1821,2.19186 -2.1493,4.32936 -2.1493,4.75 0,1.7156 3.4489,0.57735 7.1624,-2.36384 z m 372.7082,27.14509 c -8.0276,-1.41523 -17.7967,-6.76504 -15.1692,-8.30702 0.4392,-0.25775 4.7886,-1.02674 9.6653,-1.70888 9.2315,-1.29127 22.5876,-0.81844 32.5994,1.15406 l 5.4661,1.07691 -2.7513,2.36654 c -5.036,4.33176 -20.2688,7.10052 -29.8103,5.41839 z M 2152.5,121.1219 c -91.5641,-2.08104 -87.9077,-1.89691 -94.117,-4.73963 -3.2011,-1.46551 -5.3247,-2.98419 -4.8081,-3.43856 1.3306,-1.17046 13.2969,-3.13649 19.0904,-3.13649 2.7141,0 5.4747,-0.54 6.1347,-1.2 0.9149,-0.91489 1.2,-21.80725 1.2,-87.93261 0,-81.751698 -0.1005,-86.760371 -1.75,-87.215943 -0.9625,-0.265831 -4,-0.758146 -6.75,-1.094033 -2.75,-0.335887 -8.0334,-1.120049 -11.7409,-1.742582 -7.7388,-1.299443 -7.7236,-2.504803 0.07,-5.512207 4.0531,-1.564197 7.9776,-1.802625 29.6709,-1.802625 24.2961,0 25.1359,0.06688 29.8247,2.375346 2.6535,1.30644 4.4535,2.686775 4,3.06741 -1.2735,1.068704 -11.9092,2.879869 -21.3247,3.631403 -4.675,0.373152 -9.0625,1.126719 -9.75,1.674594 -0.9827,0.783146 -1.2467,19.304743 -1.2347,86.623687 0.01,52.17069 0.3855,86.21365 0.9628,87.12756 0.81,1.28239 8.0253,1.61061 49.7347,2.26243 26.833,0.41934 50.4914,0.64434 52.5743,0.5 l 3.7871,-0.26243 3.9012,-11.65967 c 2.1456,-6.41281 5.2148,-14.25744 6.8203,-17.43249 l 2.919,-5.77284 1.8927,2.89267 c 2.8758,4.39531 2.5983,17.23084 -0.5241,24.24244 -3.1854,7.15296 -11.184,14.38684 -18.2278,16.48501 -5.8858,1.75325 -21.7952,2.52684 -42.3555,2.05956 z M 1035,118.19813 c -4.9868,-0.92023 -11.0901,-3.62077 -10.7181,-4.74251 0.3652,-1.10103 2.1125,-1.5179 13.2181,-3.15358 2.75,-0.40503 5.5625,-1.44307 6.25,-2.30675 1.9124,-2.4025 1.8196,-197.475581 -0.095,-199.390053 -0.7397,-0.739662 -4.9022,-1.936629 -9.25,-2.659927 -10.7219,-1.783675 -10.8908,-1.84806 -9.4378,-3.598771 2.4601,-2.964329 8.0694,-3.842939 20.4799,-3.207859 19.993,1.023084 27.8373,4.26344 32.9177,13.597799 3.2843,6.034303 3.3093,6.268128 4.6058,43.070741 1.0435,29.61747 2.003,36.28149 5.5596,38.61187 2.1274,1.39395 2.6842,1.38012 5.9013,-0.1465 3.2119,-1.52411 3.9119,-1.54225 7.3041,-0.18923 8.757,3.49274 9.3724,10.48659 1.6494,18.74314 -2.4647,2.635 -8.5097,7.84242 -13.4333,11.57205 -5.5504,4.20452 -8.9519,7.47805 -8.9519,8.61524 0,2.0135 9.1329,12.35077 36.5,41.31337 9.9,10.47717 21.6621,22.94796 26.138,27.71288 l 8.138,8.66348 7.862,0.69557 c 4.3241,0.38257 8.762,1.0381 9.862,1.45674 1.7643,0.67148 1.5619,0.94913 -1.7179,2.35628 -2.7406,1.17583 -6.9463,1.59055 -16,1.57778 -17.9926,-0.0254 -29.8905,-1.53652 -40.7821,-5.17967 -6.6981,-2.24045 -11.172,-3.13707 -15.1688,-3.04 -3.8579,0.0937 -6.0513,-0.32333 -6.8665,-1.30549 -0.6587,-0.79373 -2.9512,-1.91532 -5.0943,-2.49241 -5.1634,-1.39036 -10.2588,-6.00371 -12.401,-11.22783 -2.5129,-6.12884 -3.4847,-34.73727 -1.1797,-34.73727 2.4388,0 40.0552,40.68155 44.6146,48.25 l 2.259,3.75 h 8.3594 c 4.5977,0 8.6318,-0.4407 8.9647,-0.97933 1.3359,-2.16145 -1.5104,-5.43646 -40.8486,-47.00105 l -24.8613,-26.26847 0.6419,-59.62558 c 0.353,-32.794061 0.7406,-62.10057 0.8613,-65.12557 l 0.2195,-5.5 -6.2081,0.0081 c -3.7295,0.0048 -6.7238,0.523725 -7.5,1.299661 -1.0344,1.034188 -1.3473,20.785181 -1.5701,99.10266 -0.1702,59.85171 0.089,98.777579 0.6687,100.301509 0.8936,2.35032 1.7109,2.58996 14.5282,4.25929 7.4697,0.97286 13.5813,1.93069 13.5813,2.12851 0,0.19781 -1.9125,1.34547 -4.25,2.55035 -3.8706,1.9951 -5.9463,2.21351 -23.25,2.44643 -10.45,0.14067 -20.125,0.0482 -21.5,-0.20556 z m 578.9935,-0.26287 c -1.3785,-0.45365 -4.0316,-1.61348 -5.8956,-2.57741 -2.5963,-1.34258 -3.0626,-1.95934 -1.9935,-2.6363 0.7676,-0.48604 2.6937,-0.8906 4.2803,-0.89902 6.3397,-0.0337 15.7436,-2.38645 16.7029,-4.17898 1.4389,-2.68862 0.7443,-115.40557 -0.7202,-116.8694 -0.8228,-0.82242 -15.7587,-3.60662 -21.1764,-3.94749 -1.0552,-0.0664 1.4327,-2.29146 4.1224,-3.68699 2.6041,-1.3511 8.1223,-1.79679 30.1866,-2.43805 14.85,-0.4316 33.525,-1.09829 41.5,-1.48154 16.602,-0.79784 23.821,0.26993 42.5,6.28625 18.4623,5.94651 24.162,9.75364 29.0532,19.40588 4.3433,8.57102 5.4131,15.28442 6.9151,43.39501 0.9765,18.2768 2.1032,30.18561 3.4872,36.86008 2.354,11.35251 2.6908,19.66123 0.7945,19.5987 -2.9167,-0.0962 -10.3506,-4.73572 -13.0762,-8.16087 -3.8081,-4.78548 -4.3504,-9.97019 -5.5743,-53.29791 -1.0114,-35.8066 -1.6598,-40.06356 -6.9821,-45.84158 -3.3924,-3.68297 -9.2364,-6.65842 -13.0776,-6.65842 -3.8193,0 -3.8685,1.53183 -0.1933,6.02216 3.9308,4.80264 4.8496,6.76747 5.645,12.07218 0.3789,2.52689 0.9858,25.79226 1.3487,51.70083 0.4144,29.5889 1.0367,47.48304 1.6732,48.11909 0.5574,0.55694 5.2824,1.48808 10.5,2.06921 17.4937,1.94842 18.562,2.418 12.2974,5.40536 -7.3193,3.49032 -24.9163,2.78478 -39.5608,-1.58615 -4.6794,-1.39664 -4.7599,-2.39064 -0.2622,-3.23442 2.0588,-0.38623 3.9508,-1.51933 4.6177,-2.76547 1.5977,-2.98527 0.603,-96.71792 -1.0846,-102.20753 -1.6477,-5.36004 -9.9435,-13.86316 -16.3191,-16.7271 -4.4325,-1.99108 -6.7546,-2.32644 -15.7018,-2.2676 -9.3501,0.0615 -11.6863,0.47044 -21.3329,3.73425 -5.9582,2.01585 -11.4394,3.66519 -12.1805,3.66519 -0.7411,0 -1.4913,-0.99748 -1.667,-2.21663 -0.4124,-2.86022 -5.5033,-4.44924 -10.0696,-3.14298 l -3.25,0.9297 -0.7953,11.96496 c -0.4374,6.58072 -0.6624,33.01904 -0.5,58.75182 0.2324,36.8199 0.5695,46.95627 1.5825,47.58202 0.708,0.43733 5.658,1.35398 11,2.03701 16.051,2.05224 17.1375,2.66682 9.9628,5.63542 -3.4579,1.43074 -7.9775,1.81934 -24.25,2.08501 -11,0.17959 -21.1279,-0.0446 -22.5065,-0.49829 z M 1549.5,116.79232 c -2.75,-0.49842 -6.8,-1.56727 -9,-2.3752 -3.6121,-1.32651 -3.7333,-1.47581 -1.25,-1.53944 3.7549,-0.0962 3.6117,-2.87768 -0.3416,-6.63337 -7.9222,-7.52637 -8.8233,-13.41364 -9.0202,-58.93709 -0.083,-19.25 -0.4296,-40.175 -0.7698,-46.5 l -0.6184,-11.5 -4.2314,-0.56476 c -2.3273,-0.31062 -4.4509,-0.78421 -4.7191,-1.05243 -0.2682,-0.26822 2.5359,-2.71408 6.2314,-5.43524 3.8142,-2.80859 6.8445,-5.82329 7.0092,-6.97314 0.1857,-1.29644 -1.7994,-4.44221 -5.5149,-8.73908 -6.1237,-7.08203 -11.1311,-15.212747 -10.0406,-16.303261 0.3568,-0.356776 4.7783,3.000051 9.8256,7.459611 10.5539,9.32501 12.5024,9.85942 16.5585,4.54158 2.1419,-2.80815 2.5249,-4.03106 1.8009,-5.75 -0.5058,-1.2008 -5.4464,-6.57078 -10.9791,-11.93328 -7.8681,-7.626092 -10.6706,-9.75 -12.865,-9.75 h -2.8055 l 1.7444,-2.75 c 2.2755,-3.587051 6.5435,-8.182233 8.673,-9.337739 1.4623,-0.793504 1.6197,-0.481932 1.1797,2.336056 -0.4805,3.077144 0.085,3.788448 10.5285,13.251683 6.07,5.5 11.7742,10.154659 12.6761,10.343686 2.0602,0.4318 8.4283,-5.626544 8.4283,-8.018298 0,-0.980254 -4.8375,-6.504833 -10.75,-12.276843 l -10.75,-10.494564 4.5927,-0.02699 c 6.9054,-0.04058 12.7065,3.439764 16.6573,9.99338 6.6873,11.093017 3.8898,20.091789 -11.5,36.99261 -4.5375,4.983 -8.25,9.52819 -8.25,10.10043 0,1.12966 2.4458,3.54458 11.7928,11.64385 3.9826,3.45093 6.9915,7.14649 8.7574,10.75578 3.0558,6.24582 3.691,12.57142 5.371,53.48696 0.5307,12.925 1.468,25.21051 2.083,27.30113 0.6149,2.09062 3.5984,7.44375 6.6299,11.89586 6.0995,8.95758 6.0852,9.04571 -1.7413,10.729469 -6.0277,1.29678 -10.6117,-0.008 -14.6365,-4.166679 -6.5829,-6.80161 -6.5345,-6.39877 -6.936,-57.75978 -0.2,-25.575 -0.5425,-47.30991 -0.7613,-48.29981 -0.3409,-1.5422 -1.3039,-1.7569 -6.7284,-1.5 l -6.3306,0.299809 0.018,49.5 c 0.013,36.85618 0.3396,50.57484 1.2772,53.70795 1.6482,5.50729 6.5439,11.82275 12.4569,16.06931 7.1223,5.1151 16.9549,5.35044 28.248,0.6761 3.5163,-1.45542 -0.2531,2.31765 -5.228,5.23311 -3.6216,2.12239 -5.9047,2.62651 -13.0797,2.88804 -4.7808,0.17425 -10.9423,-0.091 -13.6923,-0.58941 z m 435.4935,-5.91944 c -7.7897,-2.36952 -12.259,-5.74263 -50.7104,-38.27262 -54.3048,-45.94187 -56.7677,-47.79304 -63.5883,-47.79304 -7.0042,0 -9.5896,6.47286 -9.6509,24.16203 -0.048,13.77003 1.1317,21.45235 5.8742,38.2614 1.695,6.00788 3.0819,12.19538 3.0819,13.75 0,2.53995 -0.3399,2.82657 -3.3521,2.82657 -6.1738,0 -15.1906,-8.54291 -17.7059,-16.77526 -2.1924,-7.17582 -3.9402,-86.45638 -2.1306,-96.6436 l 0.6961,-3.91886 5.9963,4.87971 c 17.37,14.13567 123.2137,105.11386 130.4962,112.16836 7.3351,7.10542 8.1574,8.22591 6,8.17581 -1.375,-0.0319 -3.6279,-0.40116 -5.0065,-0.8205 z m 16.6732,-3.73233 C 2001.3,106.77389 2001,104.75599 2001,102.65633 c 0,-2.79286 -0.7381,-4.59824 -2.75,-6.72602 -1.5125,-1.59965 -24.575,-21.48943 -51.25,-44.19951 -26.675,-22.71008 -68.2152,-58.19588 -92.3117,-78.85732 -24.0964,-20.661443 -45.2599,-38.346492 -47.0299,-39.300108 -1.7701,-0.953617 -6.0179,-2.116721 -9.4397,-2.584675 -6.8078,-0.931027 -8.4441,-1.786523 -6.1897,-3.236113 4.4221,-2.843471 9.7009,-3.178294 32.971,-2.09127 24.324,1.136259 30.9969,2.261797 38,6.409583 5.8242,3.449539 20.1597,14.984263 47.5,38.219663 14.3,12.15298 29.375,24.93262 33.5,28.3992 17.6155,14.80373 25.9081,15.90069 29.4723,3.89862 3.2942,-11.09249 1.6086,-26.123 -5.3918,-48.079559 -2.2443,-7.039119 -4.0805,-13.001619 -4.0805,-13.25 0,-1.051358 3.3529,-0.312205 6.9819,1.539168 4.806,2.451847 8.6854,7.394684 10.7636,13.714141 2.2314,6.78565 3.2276,91.29509 1.0762,91.29509 -0.7549,0 -15.3315,-11.8125 -32.3924,-26.25 -37.3822,-31.63401 -96.648,-82.360897 -101.241,-86.65429 -3.1629,-2.956603 -3.6923,-3.09571 -11.7814,-3.09571 -8.7618,0 -10.6799,0.950672 -8.7406,4.332176 0.7981,1.391652 35.4576,31.144994 125.203,107.480144 22.7531,19.35322 41.982,35.18768 42.7309,35.18768 0.749,0 1.5737,-1.0125 1.8328,-2.25 0.2591,-1.2375 0.8929,-27.9 1.4084,-59.25 1.0406,-63.287339 1.0667,-63.527804 7.7364,-71.319903 4.3015,-5.025316 7.6762,-6.937712 12.9964,-7.364887 3.674,-0.294993 3.9053,-0.154862 3.6067,2.18479 -0.1755,1.375 -1.8421,7.675 -3.7037,14 -1.8615,6.325 -3.8978,13.525 -4.525,16 -0.6969,2.74999 -1.4605,21.80565 -1.9636,49 -0.481,26.00139 -1.2893,46.5785 -1.9446,49.5 -0.6168,2.75 -2.0175,10.78185 -3.1127,17.84855 -1.1092,7.15755 -2.8728,14.57663 -3.9816,16.75 -2.1147,4.14512 -2.2446,4.27318 -3.283,3.23478 z m -406.2947,-2.80638 c -0.3216,-0.83804 1.2382,-6.38741 3.4662,-12.33193 4.9624,-13.2399 6.1684,-22.01192 6.1417,-44.66879 -0.02,-16.9734 -0.3183,-20.24933 -3.5367,-38.84806 -1.1113,-6.42227 -1.3599,-10.16143 -0.7184,-10.803 1.6054,-1.60542 7.8958,2.80839 9.8601,6.91865 2.6706,5.58797 3.8658,33.41651 2.6986,62.83507 -1.1478,28.93171 -1.6526,30.50945 -11.3226,35.39087 -5.0382,2.54324 -6.0983,2.78574 -6.5889,1.50719 z m 69.0503,-0.94536 c -3.8637,-1.6824 -8.7337,-7.51361 -10.3313,-12.3703 -1.33,-4.04361 -2.8849,-74.91209 -1.7433,-79.46048 0.5068,-2.01944 2.1679,-3.13127 8.3921,-5.61724 11.9639,-4.77841 19.5488,-6.37765 28.3521,-5.97787 9.3311,0.42375 12.244,2.14429 15.9081,9.39627 l 2.5,4.94803 v 33.5 c 0,34.9436 -1.0253,57 -2.6497,57 -0.5238,0 -1.6728,-1.6875 -2.5532,-3.75 -1.2885,-3.01814 -1.7809,-10.28798 -2.5231,-37.25 -0.921,-33.45473 -0.9259,-33.5073 -3.5981,-38.90298 -3.1526,-6.36554 -6.3922,-9.05258 -11.7625,-9.75632 -6.6696,-0.87401 -13.8094,5.58636 -16.6441,15.06034 -0.7873,2.63112 -1.2157,10.90289 -1.1965,23.09896 0.024,15.33806 0.4537,21.20961 2.2286,30.46456 1.2092,6.3055 2.1986,13.618 2.1986,16.25 0,5.34066 -0.94,5.82185 -6.5777,3.36703 z m -648.4336,-1.09515 c -2.4905,-3.00088 -2.2797,-10.50063 0.5617,-19.98644 5.9973,-20.02172 6.8688,-32.11904 3.7007,-51.37166 -2.1538,-13.08856 -2.136,-22.93176 0.062,-34.50933 2.2544,-11.87221 2.3305,-51.298507 0.1218,-63.11901 -2.4588,-13.159195 -2.886,-18.5 -1.4796,-18.5 2.45,0 7.2266,3.571013 9.3633,7 l 2.1809,3.5 0.2907,72 c 0.1598,39.6 -0.1014,77.00059 -0.5806,83.11242 -1.0312,13.15243 -2.8493,17.47196 -8.8442,21.01236 -3.6537,2.15773 -4.2255,2.24935 -5.3772,0.86166 z M 444,98.79899 c 0,-2.20452 1.12596,-8.7735 2.50214,-14.59773 4.2098,-17.81662 4.70554,-26.00932 4.23245,-69.94672 l -0.4409,-40.94732 -3.14684,-13.28184 c -2.95499,-12.472084 -3.92842,-20.21816 -2.54075,-20.21816 2.2971,0 9.04553,7.181167 11.23043,11.950574 2.29515,5.010056 2.62921,7.396106 3.43705,24.549426 1.17495,24.94856 0.29352,99.0749 -1.27197,106.96828 -0.65102,3.28255 -2.02965,7.62652 -3.06362,9.65327 -1.74171,3.41404 -8.39419,9.87845 -10.16583,9.87845 -0.42469,0 -0.77216,-1.8037 -0.77216,-4.00823 z m 1369.5702,3.12177 c -0.3013,-0.48755 1.5045,-9.15005 4.013,-19.25 l 4.5608,-18.36354 -0.4387,-35.5 c -0.4729,-38.27114 -1.2196,-44.62839 -6.1075,-52 -1.2764,-1.925 -7.9801,-9.46974 -14.897,-16.7661 -11.4667,-12.095717 -14.7654,-16.502675 -13.3853,-17.882712 0.544,-0.544053 12.3756,5.626338 17.1845,8.962026 4.1733,2.894804 20.3873,15.901186 23.9115,19.181046 l 2.9116,2.70967 -0.6763,52.29437 c -0.3834,29.63824 -1.1407,54.83043 -1.7482,58.14804 -1.4797,8.08177 -5.2177,14.60271 -9.8693,17.21706 -4.276,2.40324 -4.6881,2.49761 -5.4591,1.25014 z m 234.8276,-0.51934 c -0.3425,-0.89237 0.8207,-7.94454 2.5848,-15.67151 3.9382,-17.25053 4.9384,-30.6507 4.9576,-66.42269 0.018,-33.96075 -1.0525,-47.67942 -4.9155,-62.98132 -3.2001,-12.676065 -3.6665,-16.51868 -2.0048,-16.51868 0.5609,0 2.8496,1.155044 5.0859,2.566764 5.6036,3.53745 8.5851,10.336579 9.866,22.499396 1.2322,11.69956 1.2903,85.27993 0.083,104.93384 -1.2304,20.02913 -3.5254,25.90465 -12.2946,31.47599 -2.5033,1.59038 -2.7936,1.60059 -3.3624,0.11821 z M 770.63726,98.38162 c -11.93951,-4.37751 -17.46614,-19.46056 -11.65659,-31.81265 2.37395,-5.04743 7.54668,-10.23759 11.88042,-11.92046 4.68038,-1.81749 14.88538,-2.88818 17.61961,-1.84863 l 2.55998,0.9733 -0.27034,20.75992 -0.27034,20.75992 -3.53454,1.66352 c -5.29987,2.49436 -11.85206,3.06622 -16.3282,1.42508 z m 163.51807,-0.11041 c -14.29638,-3.10279 -25.11544,-14.59976 -29.73199,-31.59495 -2.03336,-7.48555 -2.82676,-23.14257 -1.55797,-30.74511 2.99839,-17.96623 15.84317,-32.03432 32.05607,-35.10903 17.06839,-3.23696 30.65166,0.49539 41.69057,11.45553 4.98446,4.9489 6.4251,7.14541 7.80918,11.90647 0.93345,3.21094 1.48736,6.04788 1.23092,6.30432 C 984.9509,31.18966 979.33039,28.1067 971.5,22.72573 952.18428,9.45215 939.85644,8.95078 927.85647,20.95075 c -5.87349,5.87349 -9.1157,13.62102 -9.66402,23.09304 -1.41454,24.43537 11.38401,41.72477 30.90833,41.75366 7.62312,0.0113 9.42425,-0.51534 24.71478,-7.22618 6.22355,-2.73145 11.5779,-4.70392 11.89855,-4.38327 0.32065,0.32064 -0.72135,2.46543 -2.31556,4.76618 -7.60993,10.98264 -16.02048,16.60768 -28.91599,19.33925 -8.4238,1.78435 -12.02145,1.78042 -20.32723,-0.0222 z M 2114,94.59738 c -1.375,-0.74178 -3.0775,-2.55313 -3.7834,-4.02523 -2.5811,-5.38303 -3.3457,-25.3665 -3.0136,-78.76493 0.3271,-52.592 0.3706,-53.59404 2.5585,-59.040769 1.2241,-3.047424 3.916,-7.169676 5.9821,-9.160561 3.5805,-3.450256 10.5596,-6.347361 12.4605,-5.172511 1.2296,0.759886 0.1189,7.71351 -3.4939,21.873841 l -3.0615,12 -0.3945,42 c -0.3308,35.20532 -0.1435,43.20034 1.1572,49.41967 2.9685,14.19362 9.2959,19.21139 25.0886,19.89575 11.5723,0.50147 17.5037,-0.62648 36.7308,-6.98492 8.652,-2.86121 16.0041,-4.92889 16.3382,-4.59485 0.9909,0.99091 -4.4358,9.44019 -8.1675,12.71668 -4.4994,3.95054 -9.9584,6.69018 -17.121,8.59226 -8.2445,2.18939 -57.6688,3.19397 -61.2805,1.24557 z M 1109.6353,-12.49778 c -4.6262,-1.13641 -4.7733,-1.27489 -3,-2.82441 4.5884,-4.00937 14.3112,-6.88593 23.1639,-6.85323 9.5674,0.0353 24.9003,4.58111 25.9364,7.68939 0.5311,1.59328 -6.296,2.36525 -24.7356,2.79696 -10.7063,0.25065 -18.2082,-0.0333 -21.3647,-0.80871 z M 1976.5,-68.355522 c -3.85,-0.546387 -7.3722,-1.352962 -7.827,-1.792389 -1.2031,-1.162234 4.0602,-4.589893 10.0627,-6.553225 4.0579,-1.327253 7.8904,-1.621763 17.5083,-1.345424 10.7908,0.310037 12.9185,0.665346 17.2079,2.873657 2.6921,1.385932 5.0544,2.998985 5.2496,3.584562 0.9299,2.789763 -29.1091,5.090879 -42.2015,3.232819 z"
       id="path819"
       inkscape:connector-curvature="0" />
  </g>
</svg>
